<svg width="165" height="30" viewBox="0 0 331 60" fill="none" xmlns="http://www.w3.org/2000/svg"><path fill-rule="evenodd" clip-rule="evenodd" d="M301 60H53.9806C62.522 53.2223 68 42.7509 68 31C68 18.0218 61.318 6.60431 51.2068 0H301C317.569 0 331 13.4315 331 30C331 46.5685 317.569 60 301 60ZM105.336 42.136C107.128 43.096 109.128 43.576 111.336 43.576C112.648 43.576 113.992 43.368 115.368 42.952C116.744 42.504 118.024 41.768 119.208 40.744L116.424 36.136C115.816 36.616 115.144 37.032 114.408 37.384C113.672 37.704 112.92 37.864 112.152 37.864C110.616 37.864 109.336 37.256 108.312 36.04C107.32 34.792 106.824 33.144 106.824 31.096C106.824 29.016 107.32 27.368 108.312 26.152C109.336 24.936 110.696 24.328 112.392 24.328C113.416 24.328 114.488 24.792 115.608 25.72L118.92 21.16C118.024 20.424 117 19.816 115.848 19.336C114.728 18.856 113.432 18.616 111.96 18.616C109.784 18.616 107.752 19.112 105.864 20.104C103.976 21.064 102.456 22.472 101.304 24.328C100.152 26.184 99.576 28.44 99.576 31.096C99.576 33.72 100.088 35.976 101.112 37.864C102.168 39.72 103.576 41.144 105.336 42.136ZM122.462 41.032C123.646 42.728 125.534 43.576 128.126 43.576C129.758 43.576 131.166 43.224 132.35 42.52C133.534 41.816 134.622 40.872 135.614 39.688H135.758L136.286 43H142.046V19.192H134.99V34.936C134.286 35.864 133.63 36.536 133.022 36.952C132.414 37.368 131.662 37.576 130.766 37.576C129.742 37.576 128.99 37.256 128.51 36.616C128.03 35.944 127.79 34.76 127.79 33.064V19.192H120.734V33.976C120.734 36.952 121.31 39.304 122.462 41.032ZM145.855 19.192V43H152.911V29.176C153.551 27.576 154.352 26.456 155.312 25.816C156.303 25.144 157.247 24.808 158.144 24.808C158.656 24.808 159.104 24.84 159.488 24.904C159.904 24.968 160.32 25.064 160.736 25.192L161.888 19.096C161.568 18.936 161.184 18.824 160.736 18.76C160.287 18.664 159.728 18.616 159.056 18.616C157.84 18.616 156.624 19.016 155.408 19.816C154.191 20.584 153.152 21.768 152.287 23.368H152.095L151.616 19.192H145.855ZM162.58 19.192V43H169.636V29.176C170.276 27.576 171.077 26.456 172.036 25.816C173.029 25.144 173.972 24.808 174.869 24.808C175.381 24.808 175.828 24.84 176.213 24.904C176.629 24.968 177.045 25.064 177.461 25.192L178.613 19.096C178.293 18.936 177.909 18.824 177.461 18.76C177.012 18.664 176.452 18.616 175.781 18.616C174.564 18.616 173.348 19.016 172.133 19.816C170.916 20.584 169.877 21.768 169.012 23.368H168.82L168.341 19.192H162.58ZM183.349 42.088C185.173 43.08 187.221 43.576 189.493 43.576C190.901 43.576 192.357 43.336 193.861 42.856C195.365 42.376 196.725 41.72 197.941 40.888L195.589 36.616C193.861 37.672 192.149 38.2 190.453 38.2C188.885 38.2 187.541 37.8 186.421 37C185.301 36.168 184.581 34.888 184.261 33.16H198.517C198.581 32.872 198.645 32.44 198.709 31.864C198.773 31.256 198.805 30.648 198.805 30.04C198.805 27.864 198.421 25.928 197.653 24.232C196.917 22.504 195.797 21.144 194.293 20.152C192.821 19.128 190.949 18.616 188.677 18.616C186.789 18.616 184.981 19.128 183.253 20.152C181.525 21.144 180.117 22.568 179.029 24.424C177.973 26.28 177.445 28.504 177.445 31.096C177.445 33.72 177.973 35.96 179.029 37.816C180.085 39.672 181.525 41.096 183.349 42.088ZM192.805 28.504H184.213C184.469 27 185.029 25.88 185.893 25.144C186.757 24.376 187.733 23.992 188.821 23.992C190.229 23.992 191.237 24.424 191.845 25.288C192.485 26.12 192.805 27.192 192.805 28.504ZM201.281 19.192V43H208.337V26.92C209.105 26.184 209.809 25.624 210.449 25.24C211.089 24.824 211.857 24.616 212.753 24.616C213.777 24.616 214.512 24.936 214.96 25.576C215.441 26.216 215.68 27.4 215.68 29.128V43H222.736V28.216C222.736 25.24 222.145 22.904 220.96 21.208C219.809 19.48 217.936 18.616 215.344 18.616C213.745 18.616 212.32 18.984 211.072 19.72C209.857 20.424 208.736 21.256 207.712 22.216H207.52L207.04 19.192H201.281ZM229.181 41.032C230.461 42.728 232.573 43.576 235.517 43.576C236.669 43.576 237.677 43.48 238.541 43.288C239.437 43.096 240.189 42.904 240.797 42.712L240.375 40.7486C241.445 41.5199 242.658 42.1583 244.016 42.664C245.679 43.272 247.296 43.576 248.863 43.576C252.063 43.576 254.495 42.84 256.16 41.368C257.824 39.864 258.656 38.04 258.656 35.896C258.656 34.424 258.32 33.24 257.647 32.344C257.007 31.416 256.191 30.68 255.199 30.136C254.24 29.56 253.247 29.096 252.223 28.744C251.007 28.296 249.936 27.88 249.007 27.496C248.111 27.08 247.663 26.488 247.663 25.72C247.663 24.472 248.576 23.848 250.399 23.848C251.231 23.848 252.063 24.024 252.895 24.376C253.727 24.728 254.559 25.224 255.391 25.864L258.559 21.64C257.568 20.872 256.367 20.184 254.96 19.576C253.583 18.936 251.983 18.616 250.16 18.616C247.439 18.616 245.231 19.304 243.535 20.68C241.871 22.056 241.039 23.848 241.039 26.056C241.039 27.368 241.359 28.488 241.999 29.416C242.639 30.312 243.423 31.048 244.352 31.624C245.311 32.2 246.271 32.68 247.231 33.064C248.063 33.384 248.848 33.704 249.583 34.024C250.32 34.312 250.911 34.632 251.359 34.984C251.839 35.336 252.079 35.784 252.079 36.328C252.079 36.936 251.839 37.432 251.359 37.816C250.88 38.168 250.111 38.344 249.055 38.344C248.063 38.344 247.055 38.136 246.031 37.72C245.039 37.272 243.999 36.648 242.911 35.848L240.149 39.6982L239.693 37.576C239.373 37.704 239.005 37.816 238.589 37.912C238.205 38.008 237.821 38.056 237.437 38.056C236.509 38.056 235.757 37.768 235.181 37.192C234.637 36.584 234.365 35.608 234.365 34.264V24.712H240.077V19.192H234.365V12.856H228.509L227.693 19.192L224.045 19.48V24.712H227.309V34.36C227.309 37.112 227.933 39.336 229.181 41.032Z" fill="url(#paint0_linear_242_42)"></path><path d="M5.02054 15.0003C-3.25928 29.34 1.66061 47.6996 16.0003 55.9795C30.34 64.2593 48.6996 59.3394 56.9795 44.9997C65.2593 30.66 60.3394 12.3004 45.9997 4.02054C31.66 -4.25929 13.3004 0.660612 5.02054 15.0003ZM12.1004 19.0802C18.1003 8.64044 31.48 5.10052 41.9198 11.1004C52.3595 17.1003 55.8995 30.48 49.8996 40.9198C43.8997 51.3596 30.52 54.8995 20.0802 48.8996C9.64045 42.8997 6.10052 29.52 12.1004 19.0802Z" fill="url(#paint1_linear_242_42)"></path><path d="M31 45C22.826 45 16.1997 38.2843 16.1997 30C16.1997 21.7157 22.826 15 31 15C39.1739 15 45.8002 21.7157 45.8002 30C45.8002 38.2843 39.1739 45 31 45Z" fill="url(#paint2_linear_242_42)" id="example"></path><defs><linearGradient id="paint0_linear_242_42" x1="308.489" y1="45.5" x2="271.385" y2="-66.1717" gradientUnits="userSpaceOnUse"><stop stop-color="#358A85"></stop><stop offset="1" stop-color="#6BEDAD"></stop></linearGradient><linearGradient id="paint1_linear_242_42" x1="56.9808" y1="15" x2="5.01928" y2="45" gradientUnits="userSpaceOnUse"><stop stop-color="#358A85"></stop><stop offset="1" stop-color="#6BEDAD"></stop></linearGradient><linearGradient id="paint2_linear_242_42" x1="18.1826" y1="37.5" x2="43.988" y2="22.7996" gradientUnits="userSpaceOnUse"><stop stop-color="#358A85"></stop><stop offset="1" stop-color="#6BEDAD"></stop></linearGradient></defs></svg>