<svg width="350" height="350" viewBox="0 0 92.604 92.604" xmlns="http://www.w3.org/2000/svg"><path style="fill:#d65348;fill-opacity:1;stroke:#2d4552;stroke-width:1.32291667;stroke-dasharray:none;stroke-opacity:1" d="M84.485 116.544v5.82l.01-.005-.01.974v49.56c7.777-1.028 16.693-3.42 23.446-8.209V124.63c-6.744-4.758-15.65-7.1-23.446-8.086zm6.326 7.873s6.446 1.922 6.477 8.336c.031 6.418-6.393 8.775-6.393 8.775zm.245 23.73s6.447 1.922 6.477 8.336c.031 6.418-6.392 8.775-6.392 8.775z" transform="translate(-75.67 -99.219)"/><path style="fill:#2ead33;fill-opacity:1;stroke:#2d4552;stroke-width:1.32291667;stroke-dasharray:none;stroke-opacity:1" d="M104.574 116.597v5.819l.011-.004-.01.973v49.562c14.934-1.977 34.09-8.956 34.005-28.35-.087-19.282-19.09-26.115-34.006-28zm11.762 13.116s8.13 3.882 7.929 15.072c-.211 11.306-8.12 15.198-8.12 15.198z" transform="translate(-75.67 -99.219)"/><path style="fill:#2ead33;fill-opacity:1;stroke:#2d4552;stroke-width:1.32291667;stroke-dasharray:none;stroke-opacity:1" d="M127.586 116.33v5.819l.01-.004-.01.974v49.56c14.935-1.976 34.09-8.955 34.006-28.35-.088-19.281-19.09-26.113-34.006-28zm11.762 13.116c-.001 0 8.13 3.882 7.928 15.072-.21 11.306-8.12 15.198-8.12 15.198z" transform="translate(-75.67 -99.219)"/></svg>