<svg width="350" height="350" viewBox="0 0 92.604 92.604" xmlns="http://www.w3.org/2000/svg"><defs><filter style="color-interpolation-filters:sRGB" id="a" x="-.085" y="0" width="1.085" height="1.071"><feFlood result="flood" flood-opacity="1" flood-color="#2D4552"/><feGaussianBlur result="blur" in="SourceGraphic"/><feOffset result="offset" in="blur" dx="-2" dy="4"/><feComposite result="comp1" operator="in" in="flood" in2="offset"/><feComposite result="comp2" in="SourceGraphic" in2="comp1"/></filter><filter style="color-interpolation-filters:sRGB" id="b" x="-.059" y="0" width="1.059" height="1.071"><feFlood result="flood" flood-opacity="1" flood-color="#2D4552"/><feGaussianBlur result="blur" in="SourceGraphic"/><feOffset result="offset" in="blur" dx="-2" dy="4"/><feComposite result="comp1" operator="in" in="flood" in2="offset"/><feComposite result="comp2" in="SourceGraphic" in2="comp1"/></filter><filter style="color-interpolation-filters:sRGB" id="c" x="-.059" y="0" width="1.059" height="1.071"><feFlood result="flood" flood-opacity="1" flood-color="#2D4552"/><feGaussianBlur result="blur" in="SourceGraphic"/><feOffset result="offset" in="blur" dx="-2" dy="4"/><feComposite result="comp1" operator="in" in="flood" in2="offset"/><feComposite result="comp2" in="SourceGraphic" in2="comp1"/></filter></defs><path style="fill:#e2574c;fill-opacity:1;stroke:none;stroke-width:1.32292;stroke-dasharray:none;stroke-opacity:1;filter:url(#a)" d="M84.761 115.032v5.82l.011-.004-.01.973v49.561c7.776-1.029 16.693-3.42 23.446-8.21V123.12c-6.744-4.759-15.651-7.101-23.447-8.087zm6.326 7.874s6.447 1.922 6.477 8.336c.031 6.418-6.392 8.774-6.392 8.774zm.246 23.73s6.446 1.922 6.476 8.336c.032 6.418-6.392 8.775-6.392 8.775z" transform="translate(-75.67 -99.219)"/><path style="fill:#2ead33;fill-opacity:1;stroke:none;stroke-width:1.32292;stroke-dasharray:none;stroke-opacity:1;filter:url(#b)" d="M104.85 115.085v5.82l.012-.005-.011.974v49.561c14.935-1.977 34.09-8.955 34.006-28.35-.088-19.282-19.09-26.114-34.006-28zm11.763 13.116c-.001 0 8.13 3.882 7.928 15.072-.21 11.307-8.12 15.199-8.12 15.199z" transform="translate(-75.67 -99.219)"/><path style="fill:#2daabe;fill-opacity:1;stroke:none;stroke-width:1.32292;stroke-dasharray:none;stroke-opacity:1;filter:url(#c)" d="M128.392 114.818v5.82l.01-.004-.01.973v49.561c14.935-1.976 34.09-8.955 34.005-28.35-.087-19.282-19.09-26.114-34.005-28zm11.762 13.116c-.001 0 8.13 3.882 7.928 15.072-.211 11.307-8.12 15.199-8.12 15.199z" transform="translate(-75.67 -99.219)"/></svg>